# xmcd
# Copyright (C) 1995-1998 Ti Kan
#
# Track frame offsets:
#       150
#       16139
#       37996
#       56637
#       72935
#       90551
#       105715
#       124714
#       141815
#       156167
#       175961
#       193497
#       207878
#       223067
#
# Disc length: 3182 seconds
#
# Revision: 0
# Processed by: cddbd v1.5.2PL0 Copyright (c) Steve Scherf et al.
# Submitted via: CD-Transfer v1.0
#
DISCID=ca0c6c0e
DTITLE=Trucks - 
DYEAR=1900
DGENRE=
TTITLE0=Six White Horses
TTITLE1=Rolling Home
TTITLE2=September
TTITLE3=Back To L.a.
TTITLE4=Personal Jesus
TTITLE5=Misery
TTITLE6=Lights In The Valley
TTITLE7=Green Hills
TTITLE8=Gimme 2
TTITLE9=Fine Day
TTITLE10=The Rainbow
TTITLE11=Can´t Let Go
TTITLE12=Don´t Call Me After 10
TTITLE13=Blue Sky
EXTD=
EXTT0=
EXTT1=
EXTT2=
EXTT3=
EXTT4=
EXTT5=
EXTT6=
EXTT7=
EXTT8=
EXTT9=
EXTT10=
EXTT11=
EXTT12=
EXTT13=
PLAYORDER=
